# xmcd
#
# Track frame offsets:
#	150
#	14991
#	33545
#	48690
#	78027
#	93489
#	119012
#	131477
#
# Disc length: 2156 seconds
#
# Revision: 0
# Processed by: cddbd v1.5.2PL0 Copyright (c) Steve Scherf et al.
# Submitted via: FairStars CD Ripper 1.90
#
DISCID=6d086a08
DTITLE=Detroit with Mitch Ryder - Detroit (Vinyl)
DYEAR=1972
DGENRE=Rock and Roll
TTITLE0=Long Neck Goose
TTITLE1=Is It You (or Is It Me)
TTITLE2=It Ain't Easy
TTITLE3=Rock 'n' Roll
TTITLE4=Let It Rock
TTITLE5=Drink
TTITLE6=Box of Old Roses
TTITLE7=I Found A Love
EXTD=
EXTT0=
EXTT1=
EXTT2=
EXTT3=
EXTT4=
EXTT5=
EXTT6=
EXTT7=
PLAYORDER=
